<?xml version="1.0" encoding="iso-8859-1"?>
<!-- Generator: Adobe Illustrator 19.0.0, SVG Export Plug-In . SVG Version: 6.00 Build 0)  -->
<svg version="1.1" id="Capa_1" xmlns="http://www.w3.org/2000/svg" xmlns:xlink="http://www.w3.org/1999/xlink" x="0px" y="0px"
	 viewBox="0 0 400 400" style="enable-background:new 0 0 400 400;" xml:space="preserve">
<path style="fill:#FFDC69;" d="M312,0H112C94.328,0,80,14.328,80,32v8H32C14.328,40,0,54.328,0,72v40c0,17.672,14.328,32,32,32h48
	v56v104v32c0,17.68,14.32,32,32,32h24h24c0,17.672,14.328,32,32,32h96c17.672,0,32-14.328,32-32h24h24c17.672,0,32-14.328,32-32V88
	v-8L320,0H312z M272,72c0-17.672-14.328-32-32-32C257.68,40,272,54.32,272,72z M272,112c0,17.68-14.32,32-32,32
	C257.672,144,272,129.672,272,112z"/>
<path style="fill:#FF8C5A;" d="M272,72v40c0,17.672-14.328,32-32,32H32c-17.672,0-32-14.328-32-32V72c0-17.672,14.328-32,32-32h208
	C257.672,40,272,54.328,272,72z"/>
<path style="fill:#FEEC9F;" d="M288,400h-96c-17.672,0-32-14.328-32-32v-80c0-17.672,14.328-32,32-32h96c17.672,0,32,14.328,32,32
	v80C320,385.672,305.672,400,288,400z"/>
<polygon style="fill:#FFFFFF;" points="224,304 224,352 264,328 "/>
<path style="fill:#FFB855;" d="M320,0h-8v56c0,17.672,14.328,32,32,32h56v-8L320,0z"/>
<g>
	<rect x="24" y="104" style="fill:#FFFFFF;" width="16" height="16"/>
	<path style="fill:#FFFFFF;" d="M67.2,107.792c-3.272,0-6.912-1.696-10.248-4.776l-0.696-0.64l-7.44,10.296l0.432,0.504
		c4.368,5.096,11.096,7.784,19.456,7.784c12.552,0,21.328-6.712,21.328-16.328c0-6.056-3.256-10.592-9.2-12.92
		c5-2.64,7.536-6.488,7.536-11.472c0-9.856-7.48-15.744-19.992-15.744c-6.264,0-12.056,2.296-17.696,7.024l-0.64,0.536l8.24,9.96
		l0.648-0.552c3.152-2.68,5.48-4.128,8.776-4.128c3.136,0,4.656,1.304,4.656,3.992c0,2.4-1.208,5.16-10.648,5.16h-0.84v11.664h0.84
		c11.392,0,12.312,2.488,12.312,5.488C74.024,107.256,69.752,107.792,67.2,107.792z"/>
	<path style="fill:#FFFFFF;" d="M95.968,92.48c0,17.304,10.92,28.48,27.824,28.48c8.072,0,15.2-3.536,19.184-6.856l0.304-0.248
		v-27.04h-22.336v13.336h7.992v6.168c-0.824,0.4-2.072,0.648-3.32,0.648c-8.952,0-13.304-4.896-13.304-14.984
		c0-8.856,4.816-14.816,11.976-14.816c4.056,0,6.2,1.216,8.768,3.456l0.632,0.552l8.904-10.04l-0.56-0.56
		c-4.776-4.776-11.144-7.408-17.912-7.408C107.544,63.168,95.968,75.224,95.968,92.48z"/>
	<path style="fill:#FFFFFF;" d="M152.048,64.168v55.792h16.008v-17.152h5.816c10.376,0,22.496-5.192,22.496-19.824
		c0-12.312-7.784-18.824-22.496-18.824h-21.824V64.168z M168.056,77.168h5.152c5.248,0,7.488,1.744,7.488,5.824
		c0,4.528-2.512,6.824-7.488,6.824h-5.152V77.168z"/>
	<path style="fill:#FFFFFF;" d="M203.472,64.168v55.792h16v-17.152h5.824c10.376,0,22.496-5.192,22.496-19.824
		c0-12.312-7.784-18.824-22.496-18.824h-21.824V64.168z M219.472,77.168h5.16c5.24,0,7.48,1.744,7.48,5.824
		c0,4.528-2.512,6.824-7.48,6.824h-5.16V77.168z"/>
</g>
<g>
</g>
<g>
</g>
<g>
</g>
<g>
</g>
<g>
</g>
<g>
</g>
<g>
</g>
<g>
</g>
<g>
</g>
<g>
</g>
<g>
</g>
<g>
</g>
<g>
</g>
<g>
</g>
<g>
</g>
</svg>
