<?xml version="1.0" encoding="iso-8859-1"?>
<!-- Generator: Adobe Illustrator 19.0.0, SVG Export Plug-In . SVG Version: 6.00 Build 0)  -->
<svg version="1.1" id="Capa_1" xmlns="http://www.w3.org/2000/svg" xmlns:xlink="http://www.w3.org/1999/xlink" x="0px" y="0px"
	 viewBox="0 0 400 400" style="enable-background:new 0 0 400 400;" xml:space="preserve">
<path style="fill:#F4E8FF;" d="M312,0H112C94.328,0,80,14.328,80,32v8H32C14.328,40,0,54.328,0,72v40c0,17.672,14.328,32,32,32h48
	v56v104v32c0,17.68,14.32,32,32,32h24h24c0,17.672,14.328,32,32,32h96c17.672,0,32-14.328,32-32h24h24c17.672,0,32-14.328,32-32V88
	v-8L320,0H312z M272,72c0-17.672-14.328-32-32-32C257.68,40,272,54.32,272,72z M272,112c0,17.68-14.32,32-32,32
	C257.672,144,272,129.672,272,112z"/>
<g>
	<path style="fill:#C98CFF;" d="M272,72v40c0,17.672-14.328,32-32,32H32c-17.672,0-32-14.328-32-32V72c0-17.672,14.328-32,32-32h208
		C257.672,40,272,54.328,272,72z"/>
	<path style="fill:#C98CFF;" d="M288,400h-96c-17.672,0-32-14.328-32-32v-80c0-17.672,14.328-32,32-32h96c17.672,0,32,14.328,32,32
		v80C320,385.672,305.672,400,288,400z"/>
</g>
<path style="fill:#DFBAFF;" d="M320,0h-8v56c0,17.672,14.328,32,32,32h56v-8L320,0z"/>
<g>
	<polygon style="fill:#FFFFFF;" points="285.784,368.064 267.576,368.064 264,362.184 240,320.184 221.784,352.064 240,352.12 
		244.568,352.128 254.128,368.064 194.216,368.064 240,287.936 	"/>
	<rect x="24" y="104" style="fill:#FFFFFF;" width="16" height="16"/>
	<path style="fill:#FFFFFF;" d="M81.824,64.168H63.256l-16.664,54.72l-0.328,1.088H62.72l2.664-11.496h13.824l2.664,11.496h16.952
		l-16.816-55.2L81.824,64.168z M76.208,95.72H68.36l0.656-2.696c1.112-4.288,2.224-9.552,3.224-14.28
		c0.368,1.6,0.744,3.256,1.112,4.912c0.72,3.208,1.472,6.52,2.2,9.352L76.208,95.72z"/>
	<polygon style="fill:#FFFFFF;" points="138.616,77.84 138.616,64.168 101.968,64.168 101.968,119.968 139.456,119.968 
		139.456,106.288 117.968,106.288 117.968,98.32 135.624,98.32 135.624,84.64 117.968,84.64 117.968,77.84 	"/>
	<path style="fill:#FFFFFF;" d="M164.224,102.816h5.824c10.376,0,22.496-5.192,22.496-19.832c0-12.312-7.784-18.824-22.496-18.824
		h-21.824v55.808h16V102.816z M164.224,77.168h5.16c5.24,0,7.48,1.736,7.48,5.816c0,4.528-2.512,6.824-7.48,6.824h-5.16V77.168z"/>
	<path style="fill:#FFFFFF;" d="M223.368,64.168l-3.352,9.352c-0.832,2.08-1.792,4.528-2.784,7.392c-0.288-0.688-0.56-1.352-0.832-2
		c-0.832-2.016-1.584-3.832-2.32-5.4l-3.872-9.344h-17.936l14.264,27.152l-15.096,28.656h17.272l4.2-10.176
		c0.96-2.328,1.944-4.728,2.92-7.392c1.168,2.864,2.128,5.128,3.192,7.416l4.552,10.16h17.936l-15.12-27.992l14.248-27.816h-17.272
		V64.168z"/>
</g>
<g>
</g>
<g>
</g>
<g>
</g>
<g>
</g>
<g>
</g>
<g>
</g>
<g>
</g>
<g>
</g>
<g>
</g>
<g>
</g>
<g>
</g>
<g>
</g>
<g>
</g>
<g>
</g>
<g>
</g>
</svg>
