<?xml version="1.0" encoding="iso-8859-1"?>
<!-- Generator: Adobe Illustrator 19.0.0, SVG Export Plug-In . SVG Version: 6.00 Build 0)  -->
<svg version="1.1" id="Capa_1" xmlns="http://www.w3.org/2000/svg" xmlns:xlink="http://www.w3.org/1999/xlink" x="0px" y="0px"
	 viewBox="0 0 400 400" style="enable-background:new 0 0 400 400;" xml:space="preserve">
<path style="fill:#FFDC69;" d="M312,0H112C94.328,0,80,14.328,80,32v8H32C14.328,40,0,54.328,0,72v40c0,17.672,14.328,32,32,32h48
	v56v104v32c0,17.68,14.32,32,32,32h24h24c0,17.672,14.328,32,32,32h96c17.672,0,32-14.328,32-32h24h24c17.672,0,32-14.328,32-32V88
	v-8L320,0H312z M272,72c0-17.672-14.328-32-32-32C257.68,40,272,54.32,272,72z M272,112c0,17.68-14.32,32-32,32
	C257.672,144,272,129.672,272,112z"/>
<path style="fill:#FF8C5A;" d="M272,72v40c0,17.672-14.328,32-32,32H32c-17.672,0-32-14.328-32-32V72c0-17.672,14.328-32,32-32h208
	C257.672,40,272,54.328,272,72z"/>
<path style="fill:#FEEC9F;" d="M288,400h-96c-17.672,0-32-14.328-32-32v-80c0-17.672,14.328-32,32-32h96c17.672,0,32,14.328,32,32
	v80C320,385.672,305.672,400,288,400z"/>
<path style="fill:#FFB855;" d="M320,0h-8v56c0,17.672,14.328,32,32,32h56v-8L320,0z"/>
<g>
	<polygon style="fill:#FFFFFF;" points="232,368 208,368 208,352 216,352 216,306.584 272,284.184 272,360 248,360 248,344 256,344 
		256,307.816 232,317.416 	"/>
	<rect x="24" y="104" style="fill:#FFFFFF;" width="16" height="16"/>
	<path style="fill:#FFFFFF;" d="M62.712,119.96l2.664-11.488h13.816l2.664,11.488h16.952l-16.816-55.2l-0.184-0.592h-18.56
		l-16.664,54.704l-0.328,1.088H62.712z M76.208,95.72H68.36l0.656-2.696c1.112-4.288,2.224-9.544,3.224-14.28
		c0.368,1.6,0.744,3.256,1.112,4.912c0.72,3.208,1.464,6.52,2.192,9.352L76.208,95.72z"/>
	<rect x="101.968" y="64.16" style="fill:#FFFFFF;" width="16" height="55.792"/>
	<polygon style="fill:#FFFFFF;" points="165.232,77.832 165.232,64.168 128.256,64.168 128.256,119.96 144.256,119.96 
		144.256,100.152 162.24,100.152 162.24,86.48 144.256,86.48 144.256,77.832 	"/>
	<polygon style="fill:#FFFFFF;" points="209.832,77.832 209.832,64.168 172.848,64.168 172.848,119.96 188.848,119.96 
		188.848,100.152 206.832,100.152 206.832,86.48 188.848,86.48 188.848,77.832 	"/>
</g>
<g>
</g>
<g>
</g>
<g>
</g>
<g>
</g>
<g>
</g>
<g>
</g>
<g>
</g>
<g>
</g>
<g>
</g>
<g>
</g>
<g>
</g>
<g>
</g>
<g>
</g>
<g>
</g>
<g>
</g>
</svg>
