<?xml version="1.0" encoding="iso-8859-1"?>
<!-- Generator: Adobe Illustrator 19.0.0, SVG Export Plug-In . SVG Version: 6.00 Build 0)  -->
<svg version="1.1" id="Capa_1" xmlns="http://www.w3.org/2000/svg" xmlns:xlink="http://www.w3.org/1999/xlink" x="0px" y="0px"
	 viewBox="0 0 400 400" style="enable-background:new 0 0 400 400;" xml:space="preserve">
<path style="fill:#FFDC69;" d="M312,0H112C94.328,0,80,14.328,80,32v8H32C14.328,40,0,54.328,0,72v40c0,17.672,14.328,32,32,32h48
	v56v104v32c0,17.68,14.32,32,32,32h24h24c0,17.672,14.328,32,32,32h96c17.672,0,32-14.328,32-32h24h24c17.672,0,32-14.328,32-32V88
	v-8L320,0H312z M272,72c0-17.672-14.328-32-32-32C257.68,40,272,54.32,272,72z M272,112c0,17.68-14.32,32-32,32
	C257.672,144,272,129.672,272,112z"/>
<path style="fill:#FF8C5A;" d="M272,72v40c0,17.672-14.328,32-32,32H32c-17.672,0-32-14.328-32-32V72c0-17.672,14.328-32,32-32h208
	C257.672,40,272,54.328,272,72z"/>
<path style="fill:#FEEC9F;" d="M288,400h-96c-17.672,0-32-14.328-32-32v-80c0-17.672,14.328-32,32-32h96c17.672,0,32,14.328,32,32
	v80C320,385.672,305.672,400,288,400z"/>
<polygon style="fill:#FFFFFF;" points="240,360 216,360 216,336 256,296 280,320 "/>
<path style="fill:#FFB855;" d="M320,0h-8v56c0,17.672,14.328,32,32,32h56v-8L320,0z"/>
<g>
	<rect x="24" y="104" style="fill:#FFFFFF;" width="16" height="16"/>
	<path style="fill:#FFFFFF;" d="M75.192,64.168H53.368v55.808h16.008v-17.16h5.816c10.376,0,22.496-5.192,22.496-19.832
		C97.688,70.672,89.904,64.168,75.192,64.168z M69.384,77.168h5.152c5.248,0,7.488,1.736,7.488,5.816
		c0,4.528-2.512,6.824-7.488,6.824h-5.152C69.384,89.808,69.384,77.168,69.384,77.168z"/>
	<path style="fill:#FFFFFF;" d="M104.8,64.168v55.808h16v-17.16h5.824c10.376,0,22.496-5.192,22.496-19.832
		c0-12.312-7.784-18.824-22.496-18.824H104.8V64.168z M120.8,77.168h5.16c5.24,0,7.48,1.736,7.48,5.816
		c0,4.528-2.512,6.824-7.48,6.824h-5.16V77.168z"/>
	<polygon style="fill:#FFFFFF;" points="196.032,64.168 151.384,64.168 151.384,77.84 165.704,77.84 165.704,119.968 
		181.712,119.968 181.712,77.84 196.032,77.84 	"/>
</g>
<g>
</g>
<g>
</g>
<g>
</g>
<g>
</g>
<g>
</g>
<g>
</g>
<g>
</g>
<g>
</g>
<g>
</g>
<g>
</g>
<g>
</g>
<g>
</g>
<g>
</g>
<g>
</g>
<g>
</g>
</svg>
