<?xml version="1.0" encoding="iso-8859-1"?>
<!-- Generator: Adobe Illustrator 19.0.0, SVG Export Plug-In . SVG Version: 6.00 Build 0)  -->
<svg version="1.1" id="Capa_1" xmlns="http://www.w3.org/2000/svg" xmlns:xlink="http://www.w3.org/1999/xlink" x="0px" y="0px"
	 viewBox="0 0 400 400" style="enable-background:new 0 0 400 400;" xml:space="preserve">
<path style="fill:#CDEDFC;" d="M312,0H112C94.328,0,80,14.328,80,32v8H32C14.328,40,0,54.328,0,72v40c0,17.672,14.328,32,32,32h48
	v56v104v32c0,17.68,14.32,32,32,32h24h24c0,17.672,14.328,32,32,32h96c17.672,0,32-14.328,32-32h24h24c17.672,0,32-14.328,32-32V88
	v-8L320,0H312z M272,72c0-17.672-14.328-32-32-32C257.68,40,272,54.32,272,72z M272,112c0,17.68-14.32,32-32,32
	C257.672,144,272,129.672,272,112z"/>
<g>
	<path style="fill:#03A7F2;" d="M272,72v40c0,17.672-14.328,32-32,32H32c-17.672,0-32-14.328-32-32V72c0-17.672,14.328-32,32-32h208
		C257.672,40,272,54.328,272,72z"/>
	<path style="fill:#03A7F2;" d="M288,400h-96c-17.672,0-32-14.328-32-32v-80c0-17.672,14.328-32,32-32h96c17.672,0,32,14.328,32,32
		v80C320,385.672,305.672,400,288,400z"/>
</g>
<path style="fill:#68CAF7;" d="M320,0h-8v56c0,17.672,14.328,32,32,32h56v-8L320,0z"/>
<g>
	<polygon style="fill:#FFFFFF;" points="285.784,368.064 267.576,368.064 264,362.184 240,320.184 221.784,352.064 240,352.12 
		244.568,352.128 254.128,368.064 194.216,368.064 240,287.936 	"/>
	<rect x="24" y="104" style="fill:#FFFFFF;" width="16" height="16"/>
	<path style="fill:#FFFFFF;" d="M69.376,102.816H75.2c10.368,0,22.488-5.192,22.488-19.832c0-12.312-7.776-18.824-22.488-18.824
		H53.376v55.808h16V102.816z M69.376,77.168h5.16c5.248,0,7.488,1.736,7.488,5.816c0,4.528-2.52,6.824-7.488,6.824h-5.16
		C69.376,89.808,69.376,77.168,69.376,77.168z"/>
	<path style="fill:#FFFFFF;" d="M143.936,102.808c0-7.448-3.736-12.688-11.104-15.6l-7.96-3.12
		c-4.104-1.576-6.072-2.416-6.072-4.096c0-2.464,3.016-2.824,4.824-2.824c3.56,0,6.552,1.088,10.336,3.76l0.648,0.456l8.128-10.2
		l-0.536-0.528c-4.776-4.68-11.712-7.488-18.576-7.488c-11.968,0-20.984,7.592-20.984,17.664c0,7.168,4.168,12.936,11.416,15.832
		l6.76,2.832l1.176,0.472c3.896,1.536,5.624,2.296,5.624,4c0,0.824,0,2.984-5.32,2.984c-3.6,0-8.248-1.936-12.128-5.056
		l-0.648-0.512l-9.2,11.08l0.6,0.536c5.536,4.984,13.4,7.968,21.04,7.968C136.384,120.968,143.936,111.832,143.936,102.808z"/>
	<path style="fill:#FFFFFF;" d="M150.888,119.968h17.656c17.672,0,27.816-10.264,27.816-28.16c0-18.088-9.904-27.648-28.648-27.648
		h-16.824V119.968z M166.888,106.792V77.344c6.832,0,13.144,1.76,13.144,14.472C180.024,105.088,173.008,106.792,166.888,106.792z"
		/>
</g>
<g>
</g>
<g>
</g>
<g>
</g>
<g>
</g>
<g>
</g>
<g>
</g>
<g>
</g>
<g>
</g>
<g>
</g>
<g>
</g>
<g>
</g>
<g>
</g>
<g>
</g>
<g>
</g>
<g>
</g>
</svg>
