<?xml version="1.0" encoding="iso-8859-1"?>
<!-- Generator: Adobe Illustrator 19.0.0, SVG Export Plug-In . SVG Version: 6.00 Build 0)  -->
<svg version="1.1" id="Capa_1" xmlns="http://www.w3.org/2000/svg" xmlns:xlink="http://www.w3.org/1999/xlink" x="0px" y="0px"
	 viewBox="0 0 400 400" style="enable-background:new 0 0 400 400;" xml:space="preserve">
<path style="fill:#FFDC69;" d="M312,0H112C94.328,0,80,14.328,80,32v8H32C14.328,40,0,54.328,0,72v40c0,17.672,14.328,32,32,32h48
	v56v104v32c0,17.68,14.32,32,32,32h24h24c0,17.672,14.328,32,32,32h96c17.672,0,32-14.328,32-32h24h24c17.672,0,32-14.328,32-32V88
	v-8L320,0H312z M272,72c0-17.672-14.328-32-32-32C257.68,40,272,54.32,272,72z M272,112c0,17.68-14.32,32-32,32
	C257.672,144,272,129.672,272,112z"/>
<path style="fill:#FF8C5A;" d="M272,72v40c0,17.672-14.328,32-32,32H32c-17.672,0-32-14.328-32-32V72c0-17.672,14.328-32,32-32h208
	C257.672,40,272,54.328,272,72z"/>
<path style="fill:#FEEC9F;" d="M288,400h-96c-17.672,0-32-14.328-32-32v-80c0-17.672,14.328-32,32-32h96c17.672,0,32,14.328,32,32
	v80C320,385.672,305.672,400,288,400z"/>
<polygon style="fill:#FFFFFF;" points="240,360 216,360 216,336 256,296 280,320 "/>
<path style="fill:#FFB855;" d="M320,0h-8v56c0,17.672,14.328,32,32,32h56v-8L320,0z"/>
<g>
	<rect x="24" y="104" style="fill:#FFFFFF;" width="16" height="16"/>
	<path style="fill:#FFFFFF;" d="M64.936,119.968l4.208-10.176c0.96-2.328,1.936-4.728,2.92-7.4c1.136,2.816,2.12,5.136,3.192,7.424
		l4.552,10.16h17.936L82.632,91.984L96.88,64.168H79.6l-3.352,9.352c-0.832,2.08-1.792,4.536-2.784,7.392
		c-0.304-0.72-0.6-1.424-0.88-2.104c-0.816-1.976-1.552-3.752-2.272-5.296l-3.88-9.344H48.496L62.76,91.32l-15.096,28.656h17.272
		V119.968z"/>
	<polygon style="fill:#FFFFFF;" points="138.776,106.288 118.296,106.288 118.296,64.168 102.296,64.168 102.296,119.968 
		138.776,119.968 	"/>
	<path style="fill:#FFFFFF;" d="M163.552,77.168c3.56,0,6.552,1.088,10.336,3.76l0.648,0.456l8.128-10.2l-0.536-0.528
		c-4.776-4.68-11.712-7.488-18.576-7.488c-11.968,0-20.984,7.592-20.984,17.664c0,7.168,4.168,12.936,11.416,15.832l6.76,2.832
		l1.176,0.472c3.896,1.536,5.624,2.296,5.624,4c0,0.824,0,2.984-5.32,2.984c-3.6,0-8.248-1.936-12.128-5.056l-0.648-0.512
		l-9.2,11.08l0.6,0.536c5.536,4.984,13.4,7.968,21.04,7.968c14.432,0,21.984-9.144,21.984-18.168c0-7.448-3.736-12.688-11.104-15.6
		l-7.96-3.12c-4.104-1.576-6.072-2.416-6.072-4.096C158.736,77.528,161.752,77.168,163.552,77.168z"/>
	<path style="fill:#FFFFFF;" d="M217.048,64.168l-3.352,9.352c-0.832,2.08-1.792,4.528-2.784,7.392c-0.288-0.688-0.56-1.352-0.832-2
		c-0.832-2.016-1.584-3.832-2.32-5.4l-3.88-9.344h-17.936l14.264,27.152l-15.096,28.656h17.272l4.208-10.176
		c0.96-2.328,1.944-4.728,2.92-7.392c1.168,2.864,2.128,5.128,3.192,7.416l4.552,10.16H235.2l-15.12-27.992l14.248-27.816h-17.28
		V64.168z"/>
</g>
<g>
</g>
<g>
</g>
<g>
</g>
<g>
</g>
<g>
</g>
<g>
</g>
<g>
</g>
<g>
</g>
<g>
</g>
<g>
</g>
<g>
</g>
<g>
</g>
<g>
</g>
<g>
</g>
<g>
</g>
</svg>
