<?xml version="1.0" encoding="iso-8859-1"?>
<!-- Generator: Adobe Illustrator 19.0.0, SVG Export Plug-In . SVG Version: 6.00 Build 0)  -->
<svg version="1.1" id="Capa_1" xmlns="http://www.w3.org/2000/svg" xmlns:xlink="http://www.w3.org/1999/xlink" x="0px" y="0px"
	 viewBox="0 0 400 400" style="enable-background:new 0 0 400 400;" xml:space="preserve">
<path style="fill:#F4E8FF;" d="M312,0H112C94.328,0,80,14.328,80,32v8H32C14.328,40,0,54.328,0,72v40c0,17.672,14.328,32,32,32h48
	v56v104v32c0,17.68,14.32,32,32,32h24h24c0,17.672,14.328,32,32,32h96c17.672,0,32-14.328,32-32h24h24c17.672,0,32-14.328,32-32V88
	v-8L320,0H312z M272,72c0-17.672-14.328-32-32-32C257.68,40,272,54.32,272,72z M272,112c0,17.68-14.32,32-32,32
	C257.672,144,272,129.672,272,112z"/>
<g>
	<path style="fill:#C98CFF;" d="M272,72v40c0,17.672-14.328,32-32,32H32c-17.672,0-32-14.328-32-32V72c0-17.672,14.328-32,32-32h208
		C257.672,40,272,54.328,272,72z"/>
	<path style="fill:#C98CFF;" d="M288,400h-96c-17.672,0-32-14.328-32-32v-80c0-17.672,14.328-32,32-32h96c17.672,0,32,14.328,32,32
		v80C320,385.672,305.672,400,288,400z"/>
</g>
<path style="fill:#DFBAFF;" d="M320,0h-8v56c0,17.672,14.328,32,32,32h56v-8L320,0z"/>
<g>
	<polygon style="fill:#FFFFFF;" points="285.784,368.064 267.576,368.064 264,362.184 240,320.184 221.784,352.064 240,352.12 
		244.568,352.128 254.128,368.064 194.216,368.064 240,287.936 	"/>
	<rect x="24" y="104" style="fill:#FFFFFF;" width="16" height="16"/>
	<path style="fill:#FFFFFF;" d="M63.256,64.168l-16.664,54.72l-0.328,1.088H62.72l2.664-11.496H79.2l2.664,11.496h16.952l-17-55.808
		H63.256z M76.208,95.72H68.36l0.656-2.696c1.112-4.288,2.224-9.544,3.224-14.272c0.368,1.584,0.736,3.232,1.112,4.88
		c0.72,3.216,1.464,6.536,2.2,9.376L76.208,95.72z"/>
	<polygon style="fill:#FFFFFF;" points="117.968,98.32 135.616,98.32 135.616,84.64 117.968,84.64 117.968,77.84 138.616,77.84 
		138.616,64.168 101.968,64.168 101.968,119.968 139.448,119.968 139.448,106.288 117.968,106.288 	"/>
	<path style="fill:#FFFFFF;" d="M164.224,102.816h5.824c10.376,0,22.488-5.192,22.488-19.832c0-12.312-7.776-18.824-22.488-18.824
		h-21.816v55.808h16v-17.152H164.224z M164.224,77.168h5.16c5.248,0,7.488,1.736,7.488,5.816c0,4.528-2.52,6.824-7.488,6.824h-5.16
		V77.168z"/>
</g>
<g>
</g>
<g>
</g>
<g>
</g>
<g>
</g>
<g>
</g>
<g>
</g>
<g>
</g>
<g>
</g>
<g>
</g>
<g>
</g>
<g>
</g>
<g>
</g>
<g>
</g>
<g>
</g>
<g>
</g>
</svg>
