<?xml version="1.0" encoding="iso-8859-1"?>
<!-- Generator: Adobe Illustrator 19.0.0, SVG Export Plug-In . SVG Version: 6.00 Build 0)  -->
<svg version="1.1" id="Capa_1" xmlns="http://www.w3.org/2000/svg" xmlns:xlink="http://www.w3.org/1999/xlink" x="0px" y="0px"
	 viewBox="0 0 400 400" style="enable-background:new 0 0 400 400;" xml:space="preserve">
<path style="fill:#FFDC69;" d="M312,0H112C94.328,0,80,14.328,80,32v8H32C14.328,40,0,54.328,0,72v40c0,17.672,14.328,32,32,32h48
	v56v104v32c0,17.68,14.32,32,32,32h24h24c0,17.672,14.328,32,32,32h96c17.672,0,32-14.328,32-32h24h24c17.672,0,32-14.328,32-32V88
	v-8L320,0H312z M272,72c0-17.672-14.328-32-32-32C257.68,40,272,54.32,272,72z M272,112c0,17.68-14.32,32-32,32
	C257.672,144,272,129.672,272,112z"/>
<path style="fill:#FF8C5A;" d="M272,72v40c0,17.672-14.328,32-32,32H32c-17.672,0-32-14.328-32-32V72c0-17.672,14.328-32,32-32h208
	C257.672,40,272,54.328,272,72z"/>
<path style="fill:#FEEC9F;" d="M288,400h-96c-17.672,0-32-14.328-32-32v-80c0-17.672,14.328-32,32-32h96c17.672,0,32,14.328,32,32
	v80C320,385.672,305.672,400,288,400z"/>
<path style="fill:#FFB855;" d="M320,0h-8v56c0,17.672,14.328,32,32,32h56v-8L320,0z"/>
<g>
	<polygon style="fill:#FFFFFF;" points="232,368 208,368 208,352 216,352 216,306.584 272,284.184 272,360 248,360 248,344 256,344 
		256,307.816 232,317.416 	"/>
	<rect x="24" y="104" style="fill:#FFFFFF;" width="16" height="16"/>
	<path style="fill:#FFFFFF;" d="M65.376,108.472h13.816l2.664,11.488h16.952l-16.816-55.2l-0.184-0.592h-18.56l-16.664,54.704
		l-0.328,1.088h16.456L65.376,108.472z M76.208,95.72H68.36l0.656-2.696c1.112-4.288,2.224-9.544,3.224-14.28
		c0.368,1.6,0.744,3.256,1.112,4.912c0.72,3.208,1.464,6.52,2.192,9.352L76.208,95.72z"/>
	<path style="fill:#FFFFFF;" d="M117.968,102.816h5.824c10.376,0,22.488-5.192,22.488-19.824c0-12.312-7.776-18.824-22.488-18.824
		h-21.816v55.792h16v-17.144H117.968z M117.968,77.168h5.16c5.248,0,7.488,1.744,7.488,5.824c0,4.528-2.52,6.824-7.488,6.824h-5.16
		V77.168z"/>
	<polygon style="fill:#FFFFFF;" points="190.032,77.832 190.032,64.168 153.384,64.168 153.384,119.96 190.864,119.96 
		190.864,106.296 169.384,106.296 169.384,98.32 187.032,98.32 187.032,84.648 169.384,84.648 169.384,77.832 	"/>
</g>
<g>
</g>
<g>
</g>
<g>
</g>
<g>
</g>
<g>
</g>
<g>
</g>
<g>
</g>
<g>
</g>
<g>
</g>
<g>
</g>
<g>
</g>
<g>
</g>
<g>
</g>
<g>
</g>
<g>
</g>
</svg>
