<?xml version="1.0" encoding="iso-8859-1"?>
<!-- Generator: Adobe Illustrator 19.0.0, SVG Export Plug-In . SVG Version: 6.00 Build 0)  -->
<svg version="1.1" id="Capa_1" xmlns="http://www.w3.org/2000/svg" xmlns:xlink="http://www.w3.org/1999/xlink" x="0px" y="0px"
	 viewBox="0 0 400 400" style="enable-background:new 0 0 400 400;" xml:space="preserve">
<path style="fill:#FFDC69;" d="M312,0H112C94.328,0,80,14.328,80,32v8H32C14.328,40,0,54.328,0,72v40c0,17.672,14.328,32,32,32h48
	v56v104v32c0,17.68,14.32,32,32,32h24h24c0,17.672,14.328,32,32,32h96c17.672,0,32-14.328,32-32h24h24c17.672,0,32-14.328,32-32V88
	v-8L320,0H312z M272,72c0-17.672-14.328-32-32-32C257.68,40,272,54.32,272,72z M272,112c0,17.68-14.32,32-32,32
	C257.672,144,272,129.672,272,112z"/>
<path style="fill:#FF8C5A;" d="M272,72v40c0,17.672-14.328,32-32,32H32c-17.672,0-32-14.328-32-32V72c0-17.672,14.328-32,32-32h208
	C257.672,40,272,54.328,272,72z"/>
<path style="fill:#FEEC9F;" d="M288,400h-96c-17.672,0-32-14.328-32-32v-80c0-17.672,14.328-32,32-32h96c17.672,0,32,14.328,32,32
	v80C320,385.672,305.672,400,288,400z"/>
<path style="fill:#FFB855;" d="M320,0h-8v56c0,17.672,14.328,32,32,32h56v-8L320,0z"/>
<g>
	<polygon style="fill:#FFFFFF;" points="216,320 200,320 200,288 232,288 232,304 216,304 	"/>
	<polygon style="fill:#FFFFFF;" points="232,368 200,368 200,336 216,336 216,352 232,352 	"/>
	<polygon style="fill:#FFFFFF;" points="280,320 264,320 264,304 248,304 248,288 280,288 	"/>
	<polygon style="fill:#FFFFFF;" points="280,368 248,368 248,352 264,352 264,336 280,336 	"/>
	<rect x="24" y="104" style="fill:#FFFFFF;" width="16" height="16"/>
	<path style="fill:#FFFFFF;" d="M95.016,78.496c0-9.64-6.976-14.328-21.32-14.328H53.368v55.792H75.36
		c13.872,0,22.152-6.288,22.152-16.824c0-6.752-3.248-11-9.92-12.944C93.024,87.784,95.016,82.568,95.016,78.496z M73.36,85.48
		h-3.992v-8.648h3.992c4.968,0,5.992,1.528,5.992,3.824C79.352,83.768,77.224,85.48,73.36,85.48z M69.376,97.152h4.992
		c6.576,0,7.488,2.32,7.488,4.824c0,3.576-2.448,5.32-7.488,5.32h-4.992V97.152z"/>
	<path style="fill:#FFFFFF;" d="M133.976,87.216l-2.368,6.976l-2.376-7l-8.696-23.016h-16.24v55.792h14.832v-16.824
		c0-3.6-0.504-8.488-1.024-12.888l2.24,6.552l7.704,18.752h6.456l7.72-18.792l2.432-6.84c-0.544,4.496-1.064,9.52-1.064,13.216
		v16.824h15V64.176h-16.248L133.976,87.216z"/>
	<path style="fill:#FFFFFF;" d="M213.168,82.992c0-12.312-7.784-18.824-22.496-18.824h-21.816v55.792h16v-17.152h5.824
		C201.048,102.816,213.168,97.624,213.168,82.992z M184.856,77.168h5.16c5.248,0,7.488,1.744,7.488,5.824
		c0,4.528-2.52,6.824-7.488,6.824h-5.16V77.168z"/>
</g>
<g>
</g>
<g>
</g>
<g>
</g>
<g>
</g>
<g>
</g>
<g>
</g>
<g>
</g>
<g>
</g>
<g>
</g>
<g>
</g>
<g>
</g>
<g>
</g>
<g>
</g>
<g>
</g>
<g>
</g>
</svg>
