<?xml version="1.0" encoding="iso-8859-1"?>
<!-- Generator: Adobe Illustrator 19.0.0, SVG Export Plug-In . SVG Version: 6.00 Build 0)  -->
<svg version="1.1" id="Capa_1" xmlns="http://www.w3.org/2000/svg" xmlns:xlink="http://www.w3.org/1999/xlink" x="0px" y="0px"
	 viewBox="0 0 400 400" style="enable-background:new 0 0 400 400;" xml:space="preserve">
<path style="fill:#FFDC69;" d="M312,0H112C94.328,0,80,14.328,80,32v8H32C14.328,40,0,54.328,0,72v40c0,17.672,14.328,32,32,32h48
	v56v104v32c0,17.68,14.32,32,32,32h24h24c0,17.672,14.328,32,32,32h96c17.672,0,32-14.328,32-32h24h24c17.672,0,32-14.328,32-32V88
	v-8L320,0H312z M272,72c0-17.672-14.328-32-32-32C257.68,40,272,54.32,272,72z M272,112c0,17.68-14.32,32-32,32
	C257.672,144,272,129.672,272,112z"/>
<path style="fill:#FF8C5A;" d="M272,72v40c0,17.672-14.328,32-32,32H32c-17.672,0-32-14.328-32-32V72c0-17.672,14.328-32,32-32h208
	C257.672,40,272,54.328,272,72z"/>
<path style="fill:#FEEC9F;" d="M288,400h-96c-17.672,0-32-14.328-32-32v-80c0-17.672,14.328-32,32-32h96c17.672,0,32,14.328,32,32
	v80C320,385.672,305.672,400,288,400z"/>
<polygon style="fill:#FFFFFF;" points="240,360 216,360 216,336 256,296 280,320 "/>
<path style="fill:#FFB855;" d="M320,0h-8v56c0,17.672,14.328,32,32,32h56v-8L320,0z"/>
<g>
	<rect x="24" y="104" style="fill:#FFFFFF;" width="16" height="16"/>
	<path style="fill:#FFFFFF;" d="M70.2,64.168H53.376v55.808H71.04c17.672,0,27.816-10.264,27.816-28.16
		C98.848,73.728,88.944,64.168,70.2,64.168z M82.512,91.816c0,13.272-7.016,14.976-13.144,14.976V77.344
		C76.2,77.344,82.512,79.104,82.512,91.816z"/>
	<path style="fill:#FFFFFF;" d="M156.424,91.816c0-17.672-9.952-28.648-25.984-28.648s-25.984,10.976-25.984,28.648
		c0,17.712,10.2,29.16,25.984,29.16S156.424,109.52,156.424,91.816z M130.44,106.952c-5.952,0-9.648-5.8-9.648-15.144
		c0-9.168,3.608-14.64,9.648-14.64s9.656,5.472,9.656,14.64C140.096,101.16,136.392,106.952,130.44,106.952z"/>
	<path style="fill:#FFFFFF;" d="M207.136,112.672l0.488-0.56l-8.936-9.88l-0.624,0.672c-2.552,2.728-5.456,4.056-8.872,4.056
		c-6.776,0-10.816-5.592-10.816-14.968c0-8.728,4.584-14.816,11.152-14.816c3.328,0,5.504,1.32,7.936,3.456l0.632,0.544L207,71.144
		l-0.56-0.56c-4.712-4.712-10.936-7.416-17.08-7.416c-13.576,0-27.312,10.072-27.312,29.32c0,17.304,10.592,28.488,26.984,28.488
		C196.104,120.968,202.536,118.024,207.136,112.672z"/>
</g>
<g>
</g>
<g>
</g>
<g>
</g>
<g>
</g>
<g>
</g>
<g>
</g>
<g>
</g>
<g>
</g>
<g>
</g>
<g>
</g>
<g>
</g>
<g>
</g>
<g>
</g>
<g>
</g>
<g>
</g>
</svg>
