<?xml version="1.0" encoding="iso-8859-1"?>
<!-- Generator: Adobe Illustrator 19.0.0, SVG Export Plug-In . SVG Version: 6.00 Build 0)  -->
<svg version="1.1" id="Capa_1" xmlns="http://www.w3.org/2000/svg" xmlns:xlink="http://www.w3.org/1999/xlink" x="0px" y="0px"
	 viewBox="0 0 448 448" style="enable-background:new 0 0 448 448;" xml:space="preserve">
<polygon style="fill:#EDEAFF;" points="336,0 104,0 104,8 104,40 24,40 24,144 104,144 104,176 104,448 216,448 312,448 424,448 
	424,88 424,80 344,0 "/>
<rect x="24" y="40" style="fill:#A495FE;" width="272" height="104"/>
<rect x="216" y="288" style="fill:#C8BFFE;" width="96" height="160"/>
<polygon style="fill:#524B7F;" points="272,408 312,368 312,448 "/>
<polygon style="fill:#7B70BF;" points="312,448 248,384 216,416 216,448 "/>
<path style="fill:#FFFFFF;" d="M312,288v48c-26.48,0-48-21.52-48-48H312z"/>
<polygon style="fill:#C8BFFE;" points="344,0 336,0 336,88 424,88 424,80 "/>
<g>
	<polygon style="fill:#FFFFFF;" points="309.784,264 291.576,264 288,258.128 264,216.128 245.784,248 264,248.056 268.568,248.064 
		278.128,264 218.216,264 264,183.872 	"/>
	<rect x="48" y="104" style="fill:#FFFFFF;" width="16" height="16"/>
	<polygon style="fill:#FFFFFF;" points="93.384,98.32 111.032,98.32 111.032,84.64 93.384,84.64 93.384,77.84 114.032,77.84 
		114.032,64.168 77.376,64.168 77.376,119.968 114.856,119.968 114.856,106.288 93.384,106.288 	"/>
	<path style="fill:#FFFFFF;" d="M140.464,64.168h-16.832v55.808h17.664c17.672,0,27.816-10.264,27.816-28.16
		C169.112,73.728,159.2,64.168,140.464,64.168z M152.776,91.816c0,13.264-7.016,14.976-13.136,14.976V77.344
		C146.464,77.344,152.776,79.104,152.776,91.816z"/>
	<path style="fill:#FFFFFF;" d="M199.696,100.16h7.992v6.16c-0.816,0.4-2.064,0.64-3.32,0.64c-8.96,0-13.312-4.888-13.312-14.968
		c0-8.856,4.816-14.816,11.976-14.816c4.064,0,6.216,1.208,8.776,3.456l0.632,0.544l8.368-9.448l0.528-0.584l-0.56-0.56
		c-4.784-4.784-11.144-7.416-17.904-7.416c-16.568,0-28.152,12.064-28.152,29.32c0,17.304,10.92,28.488,27.816,28.488
		c8.08,0,15.208-3.544,19.184-6.856l0.304-0.256v-27.04h-22.328V100.16z"/>
	<polygon style="fill:#FFFFFF;" points="246.8,98.32 264.456,98.32 264.456,84.64 246.8,84.64 246.8,77.84 267.448,77.84 
		267.448,64.168 230.8,64.168 230.8,119.968 268.28,119.968 268.28,106.288 246.8,106.288 	"/>
</g>
<g>
	<rect x="336" y="328" style="fill:#DBD5FF;" width="40" height="16"/>
	<rect x="352" y="360" style="fill:#DBD5FF;" width="16" height="16"/>
	<rect x="384" y="360" style="fill:#DBD5FF;" width="16" height="16"/>
	<rect x="336" y="392" style="fill:#DBD5FF;" width="56" height="16"/>
	<rect x="152" y="360" style="fill:#DBD5FF;" width="40" height="16"/>
	<rect x="160" y="328" style="fill:#DBD5FF;" width="16" height="16"/>
	<rect x="128" y="328" style="fill:#DBD5FF;" width="16" height="16"/>
	<rect x="136" y="296" style="fill:#DBD5FF;" width="56" height="16"/>
	<rect x="320" y="216" style="fill:#DBD5FF;" width="56" height="16"/>
	<rect x="152" y="216" style="fill:#DBD5FF;" width="56" height="16"/>
	<rect x="344" y="248" style="fill:#DBD5FF;" width="16" height="16"/>
	<rect x="376" y="248" style="fill:#DBD5FF;" width="24" height="16"/>
	<rect x="128" y="248" style="fill:#DBD5FF;" width="16" height="16"/>
	<rect x="160" y="248" style="fill:#DBD5FF;" width="24" height="16"/>
</g>
<g>
</g>
<g>
</g>
<g>
</g>
<g>
</g>
<g>
</g>
<g>
</g>
<g>
</g>
<g>
</g>
<g>
</g>
<g>
</g>
<g>
</g>
<g>
</g>
<g>
</g>
<g>
</g>
<g>
</g>
</svg>
