<?xml version="1.0" encoding="iso-8859-1"?>
<!-- Generator: Adobe Illustrator 19.0.0, SVG Export Plug-In . SVG Version: 6.00 Build 0)  -->
<svg version="1.1" id="Capa_1" xmlns="http://www.w3.org/2000/svg" xmlns:xlink="http://www.w3.org/1999/xlink" x="0px" y="0px"
	 viewBox="0 0 400 400" style="enable-background:new 0 0 400 400;" xml:space="preserve">
<path style="fill:#FFDC69;" d="M312,0H112C94.328,0,80,14.328,80,32v8H32C14.328,40,0,54.328,0,72v40c0,17.672,14.328,32,32,32h48
	v56v104v32c0,17.68,14.32,32,32,32h24h24c0,17.672,14.328,32,32,32h96c17.672,0,32-14.328,32-32h24h24c17.672,0,32-14.328,32-32V88
	v-8L320,0H312z M272,72c0-17.672-14.328-32-32-32C257.68,40,272,54.32,272,72z M272,112c0,17.68-14.32,32-32,32
	C257.672,144,272,129.672,272,112z"/>
<path style="fill:#FF8C5A;" d="M272,72v40c0,17.672-14.328,32-32,32H32c-17.672,0-32-14.328-32-32V72c0-17.672,14.328-32,32-32h208
	C257.672,40,272,54.328,272,72z"/>
<path style="fill:#FEEC9F;" d="M288,400h-96c-17.672,0-32-14.328-32-32v-80c0-17.672,14.328-32,32-32h96c17.672,0,32,14.328,32,32
	v80C320,385.672,305.672,400,288,400z"/>
<path style="fill:#FFB855;" d="M320,0h-8v56c0,17.672,14.328,32,32,32h56v-8L320,0z"/>
<g>
	<polygon style="fill:#FFFFFF;" points="216,320 200,320 200,288 232,288 232,304 216,304 	"/>
	<polygon style="fill:#FFFFFF;" points="232,368 200,368 200,336 216,336 216,352 232,352 	"/>
	<polygon style="fill:#FFFFFF;" points="280,320 264,320 264,304 248,304 248,288 280,288 	"/>
	<polygon style="fill:#FFFFFF;" points="280,368 248,368 248,352 264,352 264,336 280,336 	"/>
	<rect x="24" y="104" style="fill:#FFFFFF;" width="16" height="16"/>
	<polygon style="fill:#FFFFFF;" points="90.024,77.84 90.024,64.168 53.376,64.168 53.376,119.968 90.856,119.968 90.856,106.288 
		69.376,106.288 69.376,98.32 87.024,98.32 87.024,84.64 69.376,84.64 69.376,77.84 	"/>
	<path style="fill:#FFFFFF;" d="M115.632,102.816h5.824c10.368,0,22.488-5.192,22.488-19.832c0-12.312-7.776-18.824-22.488-18.824
		H99.632v55.808h16V102.816z M115.632,77.168h5.16c5.248,0,7.488,1.736,7.488,5.816c0,4.528-2.52,6.824-7.488,6.824h-5.16V77.168z"
		/>
	<path style="fill:#FFFFFF;" d="M168.544,106.952c-3.6,0-8.248-1.936-12.128-5.056l-0.648-0.512l-9.2,11.08l0.6,0.536
		c5.536,4.984,13.4,7.968,21.04,7.968c14.432,0,21.984-9.144,21.984-18.168c0-7.448-3.736-12.688-11.104-15.6l-7.96-3.12
		c-4.104-1.576-6.072-2.416-6.072-4.096c0-2.464,3.016-2.824,4.824-2.824c3.56,0,6.552,1.088,10.336,3.76l0.648,0.456l8.128-10.2
		l-0.536-0.528c-4.776-4.68-11.712-7.488-18.576-7.488c-11.968,0-20.984,7.592-20.984,17.664c0,7.168,4.168,12.936,11.416,15.832
		l6.76,2.832l1.176,0.472c3.896,1.536,5.624,2.296,5.624,4C173.864,104.792,173.864,106.952,168.544,106.952z"/>
</g>
<g>
</g>
<g>
</g>
<g>
</g>
<g>
</g>
<g>
</g>
<g>
</g>
<g>
</g>
<g>
</g>
<g>
</g>
<g>
</g>
<g>
</g>
<g>
</g>
<g>
</g>
<g>
</g>
<g>
</g>
</svg>
