<?xml version="1.0" encoding="iso-8859-1"?>
<!-- Generator: Adobe Illustrator 19.0.0, SVG Export Plug-In . SVG Version: 6.00 Build 0)  -->
<svg version="1.1" id="Capa_1" xmlns="http://www.w3.org/2000/svg" xmlns:xlink="http://www.w3.org/1999/xlink" x="0px" y="0px"
	 viewBox="0 0 400 400" style="enable-background:new 0 0 400 400;" xml:space="preserve">
<path style="fill:#FDCCE1;" d="M312,0H112C94.328,0,80,14.328,80,32v8H32C14.328,40,0,54.328,0,72v40c0,17.672,14.328,32,32,32h48
	v56v104v32c0,17.68,14.32,32,32,32h24h24c0,17.672,14.328,32,32,32h96c17.672,0,32-14.328,32-32h24h24c17.672,0,32-14.328,32-32V88
	v-8L320,0H312z M272,72c0-17.672-14.328-32-32-32C257.68,40,272,54.32,272,72z M272,112c0,17.68-14.32,32-32,32
	C257.672,144,272,129.672,272,112z"/>
<g>
	<path style="fill:#F6016B;" d="M272,72v40c0,17.672-14.328,32-32,32H32c-17.672,0-32-14.328-32-32V72c0-17.672,14.328-32,32-32h208
		C257.672,40,272,54.328,272,72z"/>
	<path style="fill:#F6016B;" d="M288,400h-96c-17.672,0-32-14.328-32-32v-80c0-17.672,14.328-32,32-32h96c17.672,0,32,14.328,32,32
		v80C320,385.672,305.672,400,288,400z"/>
</g>
<path style="fill:#FA67A6;" d="M320,0h-8v56c0,17.672,14.328,32,32,32h56v-8L320,0z"/>
<g>
	<polygon style="fill:#FFFFFF;" points="285.784,368.064 267.576,368.064 264,362.184 240,320.184 221.784,352.064 240,352.12 
		244.568,352.128 254.128,368.064 194.216,368.064 240,287.936 	"/>
	<rect x="24" y="104" style="fill:#FFFFFF;" width="16" height="16"/>
	<rect x="53.376" y="64.16" style="fill:#FFFFFF;" width="16" height="55.808"/>
	<path style="fill:#FFFFFF;" d="M109.288,119.968h16.016V64.16h-15.336v16.496c0,5.032,0.664,10.968,1.272,15.984l-3.336-7.856
		L95.688,64.168H79.672v55.808h15.336v-16.504c0-5.112-0.68-10.92-1.296-16.072l3.368,7.864L109.288,119.968z"/>
	<path style="fill:#FFFFFF;" d="M181.048,91.816c0-18.088-9.904-27.648-28.648-27.648h-16.824v55.808h17.656
		C170.912,119.968,181.048,109.704,181.048,91.816z M151.576,106.792V77.344c6.832,0,13.144,1.76,13.144,14.472
		C164.712,105.088,157.696,106.792,151.576,106.792z"/>
	<path style="fill:#FFFFFF;" d="M234.472,91.816c0-18.088-9.912-27.648-28.656-27.648h-16.824v55.808h17.656
		C224.328,119.968,234.472,109.704,234.472,91.816z M204.992,106.792V77.344c6.824,0,13.136,1.76,13.136,14.472
		C218.128,105.088,211.112,106.792,204.992,106.792z"/>
</g>
<g>
</g>
<g>
</g>
<g>
</g>
<g>
</g>
<g>
</g>
<g>
</g>
<g>
</g>
<g>
</g>
<g>
</g>
<g>
</g>
<g>
</g>
<g>
</g>
<g>
</g>
<g>
</g>
<g>
</g>
</svg>
