<?xml version="1.0" encoding="iso-8859-1"?>
<!-- Generator: Adobe Illustrator 19.0.0, SVG Export Plug-In . SVG Version: 6.00 Build 0)  -->
<svg version="1.1" id="Capa_1" xmlns="http://www.w3.org/2000/svg" xmlns:xlink="http://www.w3.org/1999/xlink" x="0px" y="0px"
	 viewBox="0 0 400 400" style="enable-background:new 0 0 400 400;" xml:space="preserve">
<path style="fill:#FFDC69;" d="M312,0H112C94.328,0,80,14.328,80,32v8H32C14.328,40,0,54.328,0,72v40c0,17.672,14.328,32,32,32h48
	v56v104v32c0,17.68,14.32,32,32,32h24h24c0,17.672,14.328,32,32,32h96c17.672,0,32-14.328,32-32h24h24c17.672,0,32-14.328,32-32V88
	v-8L320,0H312z M272,72c0-17.672-14.328-32-32-32C257.68,40,272,54.32,272,72z M272,112c0,17.68-14.32,32-32,32
	C257.672,144,272,129.672,272,112z"/>
<path style="fill:#FF8C5A;" d="M272,72v40c0,17.672-14.328,32-32,32H32c-17.672,0-32-14.328-32-32V72c0-17.672,14.328-32,32-32h208
	C257.672,40,272,54.328,272,72z"/>
<path style="fill:#FEEC9F;" d="M288,400h-96c-17.672,0-32-14.328-32-32v-80c0-17.672,14.328-32,32-32h96c17.672,0,32,14.328,32,32
	v80C320,385.672,305.672,400,288,400z"/>
<polygon style="fill:#FFFFFF;" points="224,304 224,352 264,328 "/>
<path style="fill:#FFB855;" d="M320,0h-8v56c0,17.672,14.328,32,32,32h56v-8L320,0z"/>
<g>
	<rect x="24" y="104" style="fill:#FFFFFF;" width="16" height="16"/>
	<path style="fill:#FFFFFF;" d="M68.208,103.136c0-3.6-0.504-8.472-1.024-12.872l2.232,6.536l7.712,18.752h6.456l7.72-18.792
		l2.432-6.84c-0.544,4.496-1.064,9.52-1.064,13.216v16.824h15V64.168H91.424l-8.36,23.048l-2.368,6.976l-2.376-7l-8.696-23.016
		h-16.24v55.792h14.832v-16.832H68.208z"/>
	<path style="fill:#FFFFFF;" d="M136.088,119.96h15v-11.824h5.664V95.632h-5.664V65.496h-19.144L113.608,97.08v11.056h22.48V119.96z
		 M129.344,95.64l4.176-7.792c0.96-2.016,1.936-4.08,2.88-6.168c-0.16,3.024-0.312,6.312-0.312,8.808v5.16h-6.744V95.64z"/>
	<path style="fill:#FFFFFF;" d="M172.232,119.96h18.576l16.48-55.792H190.84l-5.648,24.288c-0.64,2.584-1.208,5.136-1.776,7.688
		c-0.496,2.232-1.008,4.52-1.568,6.832c-0.464-1.96-0.888-3.896-1.312-5.792c-0.624-2.856-1.272-5.808-2.04-8.736L172.68,64.16
		h-16.944l16.304,55.192L172.232,119.96z"/>
</g>
<g>
</g>
<g>
</g>
<g>
</g>
<g>
</g>
<g>
</g>
<g>
</g>
<g>
</g>
<g>
</g>
<g>
</g>
<g>
</g>
<g>
</g>
<g>
</g>
<g>
</g>
<g>
</g>
<g>
</g>
</svg>
