<?xml version="1.0" encoding="iso-8859-1"?>
<!-- Generator: Adobe Illustrator 19.0.0, SVG Export Plug-In . SVG Version: 6.00 Build 0)  -->
<svg version="1.1" id="Capa_1" xmlns="http://www.w3.org/2000/svg" xmlns:xlink="http://www.w3.org/1999/xlink" x="0px" y="0px"
	 viewBox="0 0 400 400" style="enable-background:new 0 0 400 400;" xml:space="preserve">
<path style="fill:#FFDC69;" d="M312,0H112C94.328,0,80,14.328,80,32v8H32C14.328,40,0,54.328,0,72v40c0,17.672,14.328,32,32,32h48
	v56v104v32c0,17.68,14.32,32,32,32h24h24c0,17.672,14.328,32,32,32h96c17.672,0,32-14.328,32-32h24h24c17.672,0,32-14.328,32-32V88
	v-8L320,0H312z M272,72c0-17.672-14.328-32-32-32C257.68,40,272,54.32,272,72z M272,112c0,17.68-14.32,32-32,32
	C257.672,144,272,129.672,272,112z"/>
<path style="fill:#FF8C5A;" d="M272,72v40c0,17.672-14.328,32-32,32H32c-17.672,0-32-14.328-32-32V72c0-17.672,14.328-32,32-32h208
	C257.672,40,272,54.328,272,72z"/>
<path style="fill:#FEEC9F;" d="M288,400h-96c-17.672,0-32-14.328-32-32v-80c0-17.672,14.328-32,32-32h96c17.672,0,32,14.328,32,32
	v80C320,385.672,305.672,400,288,400z"/>
<polygon style="fill:#FFFFFF;" points="224,304 224,352 264,328 "/>
<path style="fill:#FFB855;" d="M320,0h-8v56c0,17.672,14.328,32,32,32h56v-8L320,0z"/>
<g>
	<rect x="24" y="104" style="fill:#FFFFFF;" width="16" height="16"/>
	<path style="fill:#FFFFFF;" d="M83.056,87.216l-2.368,6.976l-2.376-7l-8.696-23.016h-16.24v55.792h14.832v-16.824
		c0-3.6-0.504-8.472-1.024-12.872l2.232,6.536l7.712,18.752h6.456l7.72-18.792l2.432-6.84c-0.544,4.496-1.064,9.52-1.064,13.216
		v16.824h15V64.176H91.424L83.056,87.216z"/>
	<path style="fill:#FFFFFF;" d="M190.856,88.456c-0.64,2.584-1.208,5.136-1.776,7.688c-0.496,2.232-1.008,4.52-1.568,6.832
		c-0.464-1.96-0.888-3.896-1.312-5.792c-0.624-2.856-1.272-5.808-2.04-8.736l-5.816-24.288H164.4h-2.984H146.64l-12.704,18.744
		V64.16h-16v55.792h16v-14.064l4.256-6.032l11.576,20.096h17.616l-19.792-32.928l14.672-19.968l15.448,52.296l0.176,0.6h18.576
		l16.488-55.792h-16.448L190.856,88.456z"/>
</g>
<g>
</g>
<g>
</g>
<g>
</g>
<g>
</g>
<g>
</g>
<g>
</g>
<g>
</g>
<g>
</g>
<g>
</g>
<g>
</g>
<g>
</g>
<g>
</g>
<g>
</g>
<g>
</g>
<g>
</g>
</svg>
