<?xml version="1.0" encoding="iso-8859-1"?>
<!-- Generator: Adobe Illustrator 19.0.0, SVG Export Plug-In . SVG Version: 6.00 Build 0)  -->
<svg version="1.1" id="Capa_1" xmlns="http://www.w3.org/2000/svg" xmlns:xlink="http://www.w3.org/1999/xlink" x="0px" y="0px"
	 viewBox="0 0 400 400" style="enable-background:new 0 0 400 400;" xml:space="preserve">
<path style="fill:#FFDC69;" d="M312,0H112C94.328,0,80,14.328,80,32v8H32C14.328,40,0,54.328,0,72v40c0,17.672,14.328,32,32,32h48
	v56v104v32c0,17.68,14.32,32,32,32h24h24c0,17.672,14.328,32,32,32h96c17.672,0,32-14.328,32-32h24h24c17.672,0,32-14.328,32-32V88
	v-8L320,0H312z M272,72c0-17.672-14.328-32-32-32C257.68,40,272,54.32,272,72z M272,112c0,17.68-14.32,32-32,32
	C257.672,144,272,129.672,272,112z"/>
<path style="fill:#FF8C5A;" d="M272,72v40c0,17.672-14.328,32-32,32H32c-17.672,0-32-14.328-32-32V72c0-17.672,14.328-32,32-32h208
	C257.672,40,272,54.328,272,72z"/>
<path style="fill:#FEEC9F;" d="M288,400h-96c-17.672,0-32-14.328-32-32v-80c0-17.672,14.328-32,32-32h96c17.672,0,32,14.328,32,32
	v80C320,385.672,305.672,400,288,400z"/>
<polygon style="fill:#FFFFFF;" points="224,304 224,352 264,328 "/>
<path style="fill:#FFB855;" d="M320,0h-8v56c0,17.672,14.328,32,32,32h56v-8L320,0z"/>
<g>
	<rect x="24" y="104" style="fill:#FFFFFF;" width="16" height="16"/>
	<path style="fill:#FFFFFF;" d="M59.992,103.136c0-3.6-0.504-8.472-1.032-12.88l2.24,6.536l7.704,18.752h6.456l7.72-18.792
		l2.44-6.84c-0.536,4.488-1.072,9.528-1.072,13.224v16.824h15.008V64.168H83.2l-8.368,23.048l-2.368,6.976l-2.376-7l-8.496-22.48
		l-0.208-0.544h-16.24v55.792h14.84v-16.824H59.992z"/>
	<path style="fill:#FFFFFF;" d="M125.72,102.816h5.816c10.376,0,22.496-5.192,22.496-19.824c0-12.312-7.784-18.824-22.496-18.824
		h-21.824v55.792h16.008L125.72,102.816L125.72,102.816z M125.72,77.168h5.152c5.248,0,7.488,1.744,7.488,5.824
		c0,4.528-2.512,6.824-7.488,6.824h-5.152V77.168z"/>
	<polygon style="fill:#FFFFFF;" points="198.616,106.296 177.136,106.296 177.136,98.32 194.792,98.32 194.792,84.648 
		177.136,84.648 177.136,77.832 197.784,77.832 197.784,64.168 161.136,64.168 161.136,119.96 198.616,119.96 	"/>
	<path style="fill:#FFFFFF;" d="M230.032,100.152h7.992v6.168c-0.824,0.4-2.072,0.648-3.32,0.648
		c-8.952,0-13.304-4.896-13.304-14.984c0-8.856,4.816-14.816,11.976-14.816c4.056,0,6.2,1.216,8.768,3.456l0.632,0.552l8.904-10.04
		l-0.56-0.56c-4.776-4.776-11.144-7.408-17.912-7.408c-16.568,0-28.152,12.056-28.152,29.312c0,17.304,10.92,28.48,27.824,28.48
		c8.072,0,15.2-3.536,19.184-6.856l0.304-0.248v-27.04h-22.336V100.152z"/>
</g>
<g>
</g>
<g>
</g>
<g>
</g>
<g>
</g>
<g>
</g>
<g>
</g>
<g>
</g>
<g>
</g>
<g>
</g>
<g>
</g>
<g>
</g>
<g>
</g>
<g>
</g>
<g>
</g>
<g>
</g>
</svg>
