<?xml version="1.0" encoding="iso-8859-1"?>
<!-- Generator: Adobe Illustrator 19.0.0, SVG Export Plug-In . SVG Version: 6.00 Build 0)  -->
<svg version="1.1" id="Capa_1" xmlns="http://www.w3.org/2000/svg" xmlns:xlink="http://www.w3.org/1999/xlink" x="0px" y="0px"
	 viewBox="0 0 400 400" style="enable-background:new 0 0 400 400;" xml:space="preserve">
<path style="fill:#FFDC69;" d="M312,0H112C94.328,0,80,14.328,80,32v8H32C14.328,40,0,54.328,0,72v40c0,17.672,14.328,32,32,32h48
	v56v104v32c0,17.68,14.32,32,32,32h24h24c0,17.672,14.328,32,32,32h96c17.672,0,32-14.328,32-32h24h24c17.672,0,32-14.328,32-32V88
	v-8L320,0H312z M272,72c0-17.672-14.328-32-32-32C257.68,40,272,54.32,272,72z M272,112c0,17.68-14.32,32-32,32
	C257.672,144,272,129.672,272,112z"/>
<path style="fill:#FF8C5A;" d="M272,72v40c0,17.672-14.328,32-32,32H32c-17.672,0-32-14.328-32-32V72c0-17.672,14.328-32,32-32h208
	C257.672,40,272,54.328,272,72z"/>
<path style="fill:#FEEC9F;" d="M288,400h-96c-17.672,0-32-14.328-32-32v-80c0-17.672,14.328-32,32-32h96c17.672,0,32,14.328,32,32
	v80C320,385.672,305.672,400,288,400z"/>
<polygon style="fill:#FFFFFF;" points="224,304 224,352 264,328 "/>
<path style="fill:#FFB855;" d="M320,0h-8v56c0,17.672,14.328,32,32,32h56v-8L320,0z"/>
<g>
	<rect x="24" y="104" style="fill:#FFFFFF;" width="16" height="16"/>
	<path style="fill:#FFFFFF;" d="M68.208,103.136c0-3.6-0.504-8.472-1.024-12.872l2.232,6.536l7.712,18.752h6.456l7.72-18.792
		l2.432-6.84c-0.544,4.496-1.064,9.52-1.064,13.216v16.824h15V64.168H91.424l-8.36,23.048l-2.368,6.976l-2.376-7l-8.696-23.016
		h-16.24v55.792h14.832v-16.832H68.208z"/>
	<path style="fill:#FFFFFF;" d="M139.76,64.168h-21.824v55.792h16v-17.152h5.824c10.368,0,22.488-5.192,22.488-19.824
		C162.24,70.672,154.472,64.168,139.76,64.168z M133.936,77.168h5.16c5.248,0,7.488,1.744,7.488,5.824
		c0,4.528-2.52,6.824-7.488,6.824h-5.16V77.168z"/>
	<path style="fill:#FFFFFF;" d="M195.336,77.168c4.056,0,6.208,1.216,8.768,3.456l0.632,0.552l8.904-10.04l-0.56-0.56
		c-4.776-4.776-11.136-7.408-17.912-7.408c-16.568,0-28.144,12.056-28.144,29.312c0,17.304,10.92,28.48,27.816,28.48
		c8.08,0,15.208-3.536,19.184-6.856l0.304-0.248v-27.04H192v13.336h7.992v6.168c-0.824,0.4-2.064,0.648-3.32,0.648
		c-8.96,0-13.312-4.896-13.312-14.984C183.36,83.12,188.176,77.168,195.336,77.168z"/>
</g>
<g>
</g>
<g>
</g>
<g>
</g>
<g>
</g>
<g>
</g>
<g>
</g>
<g>
</g>
<g>
</g>
<g>
</g>
<g>
</g>
<g>
</g>
<g>
</g>
<g>
</g>
<g>
</g>
<g>
</g>
</svg>
