<?xml version="1.0" encoding="iso-8859-1"?>
<!-- Generator: Adobe Illustrator 19.0.0, SVG Export Plug-In . SVG Version: 6.00 Build 0)  -->
<svg version="1.1" id="Capa_1" xmlns="http://www.w3.org/2000/svg" xmlns:xlink="http://www.w3.org/1999/xlink" x="0px" y="0px"
	 viewBox="0 0 400 400" style="enable-background:new 0 0 400 400;" xml:space="preserve">
<path style="fill:#F3F9D2;" d="M312,0H112C94.328,0,80,14.328,80,32v8H32C14.328,40,0,54.328,0,72v40c0,17.672,14.328,32,32,32h48
	v56v104v32c0,17.68,14.32,32,32,32h24h24c0,17.672,14.328,32,32,32h96c17.672,0,32-14.328,32-32h24h24c17.672,0,32-14.328,32-32V88
	v-8L320,0H312z M272,72c0-17.672-14.328-32-32-32C257.68,40,272,54.32,272,72z M272,112c0,17.68-14.32,32-32,32
	C257.672,144,272,129.672,272,112z"/>
<g>
	<path style="fill:#C4E11F;" d="M272,72v40c0,17.672-14.328,32-32,32H32c-17.672,0-32-14.328-32-32V72c0-17.672,14.328-32,32-32h208
		C257.672,40,272,54.328,272,72z"/>
	<path style="fill:#C4E11F;" d="M288,400h-96c-17.672,0-32-14.328-32-32v-80c0-17.672,14.328-32,32-32h96c17.672,0,32,14.328,32,32
		v80C320,385.672,305.672,400,288,400z"/>
</g>
<path style="fill:#DCED79;" d="M320,0h-8v56c0,17.672,14.328,32,32,32h56v-8L320,0z"/>
<g>
	<polygon style="fill:#FFFFFF;" points="285.784,368.064 267.576,368.064 264,362.184 240,320.184 221.784,352.064 240,352.12 
		244.568,352.128 254.128,368.064 194.216,368.064 240,287.936 	"/>
	<rect x="24" y="104" style="fill:#FFFFFF;" width="16" height="16"/>
	<path style="fill:#FFFFFF;" d="M74.832,88.088l-2.368,6.976l-2.376-7l-8.496-22.48l-0.2-0.544h-16.24v55.808h14.832v-16.832
		c0-3.6-0.504-8.472-1.024-12.872l2.232,6.528l7.712,18.752h6.456l7.72-18.792l2.432-6.832c-0.544,4.496-1.064,9.52-1.064,13.216
		v16.832h15V65.04H83.2L74.832,88.088z"/>
	<path style="fill:#FFFFFF;" d="M140.184,95.512c0,10.216-2.992,12.312-7.488,12.312c-4.392,0-7.32-2.096-7.32-12.312v-30.48h-16
		v28.824c0,18.832,7.632,27.984,23.32,27.984c15.68,0,22.984-8.896,22.984-27.984V65.04h-15.504v30.472H140.184z"/>
	<path style="fill:#FFFFFF;" d="M193.664,88.08l-7.96-3.12c-4.104-1.576-6.072-2.416-6.072-4.096c0-2.464,3.016-2.824,4.824-2.824
		c3.56,0,6.552,1.088,10.336,3.76l0.648,0.456l8.128-10.2l-0.536-0.528c-4.776-4.68-11.712-7.488-18.576-7.488
		c-11.968,0-20.984,7.592-20.984,17.664c0,7.168,4.168,12.936,11.416,15.832l6.76,2.832l1.176,0.472
		c3.896,1.536,5.624,2.296,5.624,4c0,0.824,0,2.984-5.32,2.984c-3.6,0-8.248-1.936-12.128-5.056l-0.648-0.512l-9.2,11.08l0.6,0.536
		c5.536,4.984,13.4,7.968,21.04,7.968c14.432,0,21.984-9.144,21.984-18.168C204.768,96.232,201.032,90.992,193.664,88.08z"/>
	<polygon style="fill:#FFFFFF;" points="227.72,99.192 245.368,99.192 245.368,85.512 227.72,85.512 227.72,78.72 248.368,78.72 
		248.368,65.04 211.72,65.04 211.72,120.84 249.2,120.84 249.2,107.168 227.72,107.168 	"/>
</g>
<g>
</g>
<g>
</g>
<g>
</g>
<g>
</g>
<g>
</g>
<g>
</g>
<g>
</g>
<g>
</g>
<g>
</g>
<g>
</g>
<g>
</g>
<g>
</g>
<g>
</g>
<g>
</g>
<g>
</g>
</svg>
