<?xml version="1.0" encoding="iso-8859-1"?>
<!-- Generator: Adobe Illustrator 19.0.0, SVG Export Plug-In . SVG Version: 6.00 Build 0)  -->
<svg version="1.1" id="Capa_1" xmlns="http://www.w3.org/2000/svg" xmlns:xlink="http://www.w3.org/1999/xlink" x="0px" y="0px"
	 viewBox="0 0 400 400" style="enable-background:new 0 0 400 400;" xml:space="preserve">
<path style="fill:#FFDC69;" d="M312,0H112C94.328,0,80,14.328,80,32v8H32C14.328,40,0,54.328,0,72v40c0,17.672,14.328,32,32,32h48
	v56v104v32c0,17.68,14.32,32,32,32h24h24c0,17.672,14.328,32,32,32h96c17.672,0,32-14.328,32-32h24h24c17.672,0,32-14.328,32-32V88
	v-8L320,0H312z M272,72c0-17.672-14.328-32-32-32C257.68,40,272,54.32,272,72z M272,112c0,17.68-14.32,32-32,32
	C257.672,144,272,129.672,272,112z"/>
<path style="fill:#FF8C5A;" d="M272,72v40c0,17.672-14.328,32-32,32H32c-17.672,0-32-14.328-32-32V72c0-17.672,14.328-32,32-32h208
	C257.672,40,272,54.328,272,72z"/>
<path style="fill:#FEEC9F;" d="M288,400h-96c-17.672,0-32-14.328-32-32v-80c0-17.672,14.328-32,32-32h96c17.672,0,32,14.328,32,32
	v80C320,385.672,305.672,400,288,400z"/>
<polygon style="fill:#FFFFFF;" points="240,360 216,360 216,336 256,296 280,320 "/>
<path style="fill:#FFB855;" d="M320,0h-8v56c0,17.672,14.328,32,32,32h56v-8L320,0z"/>
<g>
	<rect x="24" y="104" style="fill:#FFFFFF;" width="16" height="16"/>
	<path style="fill:#FFFFFF;" d="M77.024,120.968c15.784,0,25.984-11.448,25.984-29.16c0-17.672-9.952-28.648-25.984-28.648
		S51.04,74.136,51.04,91.808C51.048,109.52,61.248,120.968,77.024,120.968z M77.024,77.168c6.04,0,9.656,5.472,9.656,14.64
		c0,9.344-3.696,15.144-9.656,15.144s-9.648-5.8-9.648-15.144C67.376,82.64,70.984,77.168,77.024,77.168z"/>
	<path style="fill:#FFFFFF;" d="M156.424,91.816c0-18.088-9.904-27.648-28.648-27.648h-16.824v55.808h17.656
		C146.288,119.968,156.424,109.704,156.424,91.816z M126.952,106.792V77.344c6.832,0,13.144,1.76,13.144,14.472
		C140.088,105.088,133.072,106.792,126.952,106.792z"/>
	<path style="fill:#FFFFFF;" d="M208.672,82.984c0-12.312-7.776-18.824-22.488-18.824h-21.816v55.808h16v-17.16h5.824
		C196.56,102.816,208.672,97.616,208.672,82.984z M180.36,77.168h5.16c5.248,0,7.488,1.736,7.488,5.816
		c0,4.528-2.52,6.824-7.488,6.824h-5.16V77.168z"/>
</g>
<g>
</g>
<g>
</g>
<g>
</g>
<g>
</g>
<g>
</g>
<g>
</g>
<g>
</g>
<g>
</g>
<g>
</g>
<g>
</g>
<g>
</g>
<g>
</g>
<g>
</g>
<g>
</g>
<g>
</g>
</svg>
