<?xml version="1.0" encoding="iso-8859-1"?>
<!-- Generator: Adobe Illustrator 19.0.0, SVG Export Plug-In . SVG Version: 6.00 Build 0)  -->
<svg version="1.1" id="Capa_1" xmlns="http://www.w3.org/2000/svg" xmlns:xlink="http://www.w3.org/1999/xlink" x="0px" y="0px"
	 viewBox="0 0 400 400" style="enable-background:new 0 0 400 400;" xml:space="preserve">
<path style="fill:#FFDC69;" d="M312,0H112C94.328,0,80,14.328,80,32v8H32C14.328,40,0,54.328,0,72v40c0,17.672,14.328,32,32,32h48
	v56v104v32c0,17.68,14.32,32,32,32h24h24c0,17.672,14.328,32,32,32h96c17.672,0,32-14.328,32-32h24h24c17.672,0,32-14.328,32-32V88
	v-8L320,0H312z M272,72c0-17.672-14.328-32-32-32C257.68,40,272,54.32,272,72z M272,112c0,17.68-14.32,32-32,32
	C257.672,144,272,129.672,272,112z"/>
<path style="fill:#FF8C5A;" d="M272,72v40c0,17.672-14.328,32-32,32H32c-17.672,0-32-14.328-32-32V72c0-17.672,14.328-32,32-32h208
	C257.672,40,272,54.328,272,72z"/>
<path style="fill:#FEEC9F;" d="M288,400h-96c-17.672,0-32-14.328-32-32v-80c0-17.672,14.328-32,32-32h96c17.672,0,32,14.328,32,32
	v80C320,385.672,305.672,400,288,400z"/>
<polygon style="fill:#FFFFFF;" points="240,360 216,360 216,336 256,296 280,320 "/>
<path style="fill:#FFB855;" d="M320,0h-8v56c0,17.672,14.328,32,32,32h56v-8L320,0z"/>
<g>
	<rect x="24" y="104" style="fill:#FFFFFF;" width="16" height="16"/>
	<path style="fill:#FFFFFF;" d="M77.032,120.968c15.784,0,25.984-11.448,25.984-29.16c0-17.672-9.96-28.648-25.984-28.648
		S51.048,74.136,51.048,91.808C51.048,109.52,61.248,120.968,77.032,120.968z M77.032,77.168c6.048,0,9.648,5.472,9.648,14.64
		c0,9.344-3.696,15.144-9.648,15.144s-9.648-5.8-9.648-15.144C67.384,82.64,70.984,77.168,77.032,77.168z"/>
	<path style="fill:#FFFFFF;" d="M156.432,91.816c0-18.088-9.904-27.648-28.648-27.648h-16.832v55.808h17.656
		C146.288,119.968,156.432,109.704,156.432,91.816z M126.952,106.792V77.344c6.824,0,13.136,1.752,13.136,14.472
		C140.088,105.088,133.072,106.792,126.952,106.792z"/>
	<polygon style="fill:#FFFFFF;" points="158.704,77.84 173.024,77.84 173.024,119.968 189.032,119.968 189.032,77.84 203.352,77.84 
		203.352,64.168 158.704,64.168 	"/>
</g>
<g>
</g>
<g>
</g>
<g>
</g>
<g>
</g>
<g>
</g>
<g>
</g>
<g>
</g>
<g>
</g>
<g>
</g>
<g>
</g>
<g>
</g>
<g>
</g>
<g>
</g>
<g>
</g>
<g>
</g>
</svg>
