<?xml version="1.0" encoding="iso-8859-1"?>
<!-- Generator: Adobe Illustrator 19.0.0, SVG Export Plug-In . SVG Version: 6.00 Build 0)  -->
<svg version="1.1" id="Capa_1" xmlns="http://www.w3.org/2000/svg" xmlns:xlink="http://www.w3.org/1999/xlink" x="0px" y="0px"
	 viewBox="0 0 400 400" style="enable-background:new 0 0 400 400;" xml:space="preserve">
<path style="fill:#FFDC69;" d="M312,0H112C94.328,0,80,14.328,80,32v8H32C14.328,40,0,54.328,0,72v40c0,17.672,14.328,32,32,32h48
	v56v104v32c0,17.68,14.32,32,32,32h24h24c0,17.672,14.328,32,32,32h96c17.672,0,32-14.328,32-32h24h24c17.672,0,32-14.328,32-32V88
	v-8L320,0H312z M272,72c0-17.672-14.328-32-32-32C257.68,40,272,54.32,272,72z M272,112c0,17.68-14.32,32-32,32
	C257.672,144,272,129.672,272,112z"/>
<path style="fill:#FF8C5A;" d="M272,72v40c0,17.672-14.328,32-32,32H32c-17.672,0-32-14.328-32-32V72c0-17.672,14.328-32,32-32h208
	C257.672,40,272,54.328,272,72z"/>
<path style="fill:#FEEC9F;" d="M288,400h-96c-17.672,0-32-14.328-32-32v-80c0-17.672,14.328-32,32-32h96c17.672,0,32,14.328,32,32
	v80C320,385.672,305.672,400,288,400z"/>
<path style="fill:#FFB855;" d="M320,0h-8v56c0,17.672,14.328,32,32,32h56v-8L320,0z"/>
<g>
	<polygon style="fill:#FFFFFF;" points="216,320 200,320 200,288 232,288 232,304 216,304 	"/>
	<polygon style="fill:#FFFFFF;" points="232,368 200,368 200,336 216,336 216,352 232,352 	"/>
	<polygon style="fill:#FFFFFF;" points="280,320 264,320 264,304 248,304 248,288 280,288 	"/>
	<polygon style="fill:#FFFFFF;" points="280,368 248,368 248,352 264,352 264,336 280,336 	"/>
	<rect x="24" y="104" style="fill:#FFFFFF;" width="16" height="16"/>
	<path style="fill:#FFFFFF;" d="M53.376,119.968h16.008v-17.16H75.2c10.376,0,22.496-5.192,22.496-19.832
		c0-12.312-7.784-18.824-22.496-18.824H53.376V119.968z M74.528,77.168c5.248,0,7.488,1.736,7.488,5.816
		c0,4.528-2.512,6.824-7.488,6.824h-5.152V77.176h5.152V77.168z"/>
	<path style="fill:#FFFFFF;" d="M129.944,77.168c3.328,0,5.504,1.32,7.936,3.456l0.624,0.544l8.384-9.448l0.528-0.584l-0.56-0.56
		c-4.712-4.712-10.936-7.416-17.08-7.416c-13.576,0-27.32,10.072-27.32,29.32c0,17.304,10.592,28.488,26.984,28.488
		c7.096,0,13.52-2.944,18.128-8.296l0.48-0.56l-8.936-9.88l-0.624,0.672c-2.536,2.728-5.448,4.056-8.864,4.056
		c-6.776,0-10.816-5.592-10.816-14.968C118.808,83.256,123.384,77.168,129.944,77.168z"/>
	<path style="fill:#FFFFFF;" d="M181.976,91.976l14.248-27.816h-17.288l-3.352,9.352c-0.832,2.08-1.792,4.528-2.784,7.392
		c-0.288-0.688-0.56-1.352-0.832-2c-0.832-2.016-1.584-3.832-2.32-5.4l-3.872-9.344H147.84l14.264,27.152l-15.096,28.656h17.272
		l4.2-10.176c0.96-2.328,1.944-4.728,2.92-7.392c1.168,2.864,2.128,5.128,3.192,7.416l4.552,10.16h17.936L181.976,91.976z"/>
</g>
<g>
</g>
<g>
</g>
<g>
</g>
<g>
</g>
<g>
</g>
<g>
</g>
<g>
</g>
<g>
</g>
<g>
</g>
<g>
</g>
<g>
</g>
<g>
</g>
<g>
</g>
<g>
</g>
<g>
</g>
</svg>
