<?xml version="1.0" encoding="iso-8859-1"?>
<!-- Generator: Adobe Illustrator 19.0.0, SVG Export Plug-In . SVG Version: 6.00 Build 0)  -->
<svg version="1.1" id="Capa_1" xmlns="http://www.w3.org/2000/svg" xmlns:xlink="http://www.w3.org/1999/xlink" x="0px" y="0px"
	 viewBox="0 0 400 400" style="enable-background:new 0 0 400 400;" xml:space="preserve">
<path style="fill:#CDEDFC;" d="M312,0H112C94.328,0,80,14.328,80,32v8H32C14.328,40,0,54.328,0,72v40c0,17.672,14.328,32,32,32h48
	v56v104v32c0,17.68,14.32,32,32,32h24h24c0,17.672,14.328,32,32,32h96c17.672,0,32-14.328,32-32h24h24c17.672,0,32-14.328,32-32V88
	v-8L320,0H312z M272,72c0-17.672-14.328-32-32-32C257.68,40,272,54.32,272,72z M272,112c0,17.68-14.32,32-32,32
	C257.672,144,272,129.672,272,112z"/>
<g>
	<path style="fill:#03A7F2;" d="M272,72v40c0,17.672-14.328,32-32,32H32c-17.672,0-32-14.328-32-32V72c0-17.672,14.328-32,32-32h208
		C257.672,40,272,54.328,272,72z"/>
	<path style="fill:#03A7F2;" d="M288,400h-96c-17.672,0-32-14.328-32-32v-80c0-17.672,14.328-32,32-32h96c17.672,0,32,14.328,32,32
		v80C320,385.672,305.672,400,288,400z"/>
</g>
<path style="fill:#68CAF7;" d="M320,0h-8v56c0,17.672,14.328,32,32,32h56v-8L320,0z"/>
<g>
	<polygon style="fill:#FFFFFF;" points="285.784,368.064 267.576,368.064 264,362.184 240,320.184 221.784,352.064 240,352.12 
		244.568,352.128 254.128,368.064 194.216,368.064 240,287.936 	"/>
	<rect x="24" y="104" style="fill:#FFFFFF;" width="16" height="16"/>
	<path style="fill:#FFFFFF;" d="M69.384,102.816H75.2c10.376,0,22.496-5.192,22.496-19.832c0-12.312-7.784-18.824-22.496-18.824
		H53.376v55.808h16.008V102.816z M69.384,77.168h5.152c5.248,0,7.488,1.736,7.488,5.816c0,4.528-2.512,6.824-7.488,6.824h-5.152
		C69.384,89.808,69.384,77.168,69.384,77.168z"/>
	<path style="fill:#FFFFFF;" d="M143.944,102.808c0-7.448-3.744-12.688-11.112-15.6l-7.96-3.12
		c-4.104-1.576-6.072-2.416-6.072-4.096c0-2.464,3.016-2.824,4.816-2.824c3.56,0,6.56,1.088,10.344,3.76l0.648,0.456l8.12-10.2
		l-0.536-0.528c-4.768-4.68-11.712-7.488-18.568-7.488c-11.96,0-20.984,7.592-20.984,17.664c0,7.168,4.168,12.936,11.416,15.832
		l6.768,2.832l1.168,0.464c3.896,1.544,5.616,2.296,5.616,4.008c0,0.824,0,2.984-5.312,2.984c-3.6,0-8.248-1.936-12.136-5.056
		l-0.64-0.512l-9.2,11.08l0.6,0.536c5.536,4.984,13.408,7.968,21.04,7.968C136.392,120.968,143.944,111.832,143.944,102.808z"/>
	<path style="fill:#FFFFFF;" d="M195.032,103.144c0-6.752-3.256-11-9.928-12.944c5.44-2.416,7.44-7.616,7.44-11.696
		c0-9.64-6.976-14.336-21.328-14.336h-20.32v55.808h21.984C186.752,119.968,195.032,113.672,195.032,103.144z M170.872,85.48h-3.984
		v-8.632h3.984c4.968,0,5.984,1.52,5.984,3.816C176.856,83.768,174.736,85.48,170.872,85.48z M171.872,97.16
		c6.576,0,7.488,2.312,7.488,4.816c0,3.584-2.448,5.32-7.488,5.32h-4.984V97.16H171.872z"/>
</g>
<g>
</g>
<g>
</g>
<g>
</g>
<g>
</g>
<g>
</g>
<g>
</g>
<g>
</g>
<g>
</g>
<g>
</g>
<g>
</g>
<g>
</g>
<g>
</g>
<g>
</g>
<g>
</g>
<g>
</g>
</svg>
