<?xml version="1.0" encoding="iso-8859-1"?>
<!-- Generator: Adobe Illustrator 19.0.0, SVG Export Plug-In . SVG Version: 6.00 Build 0)  -->
<svg version="1.1" id="Capa_1" xmlns="http://www.w3.org/2000/svg" xmlns:xlink="http://www.w3.org/1999/xlink" x="0px" y="0px"
	 viewBox="0 0 400 400" style="enable-background:new 0 0 400 400;" xml:space="preserve">
<path style="fill:#FFDC69;" d="M312,0H112C94.328,0,80,14.328,80,32v8H32C14.328,40,0,54.328,0,72v40c0,17.672,14.328,32,32,32h48
	v56v104v32c0,17.68,14.32,32,32,32h24h24c0,17.672,14.328,32,32,32h96c17.672,0,32-14.328,32-32h24h24c17.672,0,32-14.328,32-32V88
	v-8L320,0H312z M272,72c0-17.672-14.328-32-32-32C257.68,40,272,54.32,272,72z M272,112c0,17.68-14.32,32-32,32
	C257.672,144,272,129.672,272,112z"/>
<path style="fill:#FF8C5A;" d="M272,72v40c0,17.672-14.328,32-32,32H32c-17.672,0-32-14.328-32-32V72c0-17.672,14.328-32,32-32h208
	C257.672,40,272,54.328,272,72z"/>
<path style="fill:#FEEC9F;" d="M288,400h-96c-17.672,0-32-14.328-32-32v-80c0-17.672,14.328-32,32-32h96c17.672,0,32,14.328,32,32
	v80C320,385.672,305.672,400,288,400z"/>
<path style="fill:#FFB855;" d="M320,0h-8v56c0,17.672,14.328,32,32,32h56v-8L320,0z"/>
<g>
	<polygon style="fill:#FFFFFF;" points="216,320 200,320 200,288 232,288 232,304 216,304 	"/>
	<polygon style="fill:#FFFFFF;" points="232,368 200,368 200,336 216,336 216,352 232,352 	"/>
	<polygon style="fill:#FFFFFF;" points="280,320 264,320 264,304 248,304 248,288 280,288 	"/>
	<polygon style="fill:#FFFFFF;" points="280,368 248,368 248,352 264,352 264,336 280,336 	"/>
	<rect x="24" y="104" style="fill:#FFFFFF;" width="16" height="16"/>
	<path style="fill:#FFFFFF;" d="M97.184,82.488c0-11.984-7.776-18.32-22.488-18.32h-21.32v55.792h16v-18.152h4.144l9.328,18.152h15
		h2.936h13.52l2.664-11.488h13.816l2.664,11.488H150.4l-16.816-55.2l-0.184-0.592h-18.56L98.88,116.56L88.752,98.456
		C94.272,95.16,97.184,89.664,97.184,82.488z M69.376,77.168h4.328c5.624,0,7.816,1.496,7.816,5.32c0,4.192-2.632,6.32-7.816,6.32
		h-4.328C69.376,88.808,69.376,77.168,69.376,77.168z M127.792,95.72h-7.848l0.656-2.696c1.112-4.288,2.224-9.544,3.224-14.28
		c0.368,1.6,0.744,3.256,1.112,4.912c0.72,3.208,1.464,6.52,2.192,9.352L127.792,95.72z"/>
	<path style="fill:#FFFFFF;" d="M201.768,64.168L198.68,88.56c-0.232,2.216-0.488,4.48-0.736,6.76c-0.2,1.792-0.4,3.6-0.592,5.408
		c-0.72-4.168-1.448-8.32-2.176-12.264l-5.304-24.304h-13.336l-5.312,24.336c-0.72,4.04-1.448,8.176-2.168,12.296
		c-0.144-1.32-0.288-2.64-0.432-3.96c-0.304-2.76-0.608-5.52-0.896-8.296L164.64,64.16h-16.392l9.784,55.792h19.224l4.12-22.16
		c0.52-2.592,0.936-5.28,1.32-7.936c0.424,2.864,0.88,5.552,1.36,7.928l4.296,22.16h19.552l9.272-55.792h-15.408V64.168z"/>
</g>
<g>
</g>
<g>
</g>
<g>
</g>
<g>
</g>
<g>
</g>
<g>
</g>
<g>
</g>
<g>
</g>
<g>
</g>
<g>
</g>
<g>
</g>
<g>
</g>
<g>
</g>
<g>
</g>
<g>
</g>
</svg>
