<?xml version="1.0" encoding="iso-8859-1"?>
<!-- Generator: Adobe Illustrator 19.0.0, SVG Export Plug-In . SVG Version: 6.00 Build 0)  -->
<svg version="1.1" id="Capa_1" xmlns="http://www.w3.org/2000/svg" xmlns:xlink="http://www.w3.org/1999/xlink" x="0px" y="0px"
	 viewBox="0 0 400 400" style="enable-background:new 0 0 400 400;" xml:space="preserve">
<path style="fill:#D8F7EE;" d="M312,0H112C94.328,0,80,14.328,80,32v8H32C14.328,40,0,54.328,0,72v40c0,17.672,14.328,32,32,32h48
	v56v104v32c0,17.68,14.32,32,32,32h24h24c0,17.672,14.328,32,32,32h96c17.672,0,32-14.328,32-32h24h24c17.672,0,32-14.328,32-32V88
	v-8L320,0H312z M272,72c0-17.672-14.328-32-32-32C257.68,40,272,54.32,272,72z M272,112c0,17.68-14.32,32-32,32
	C257.672,144,272,129.672,272,112z"/>
<g>
	<path style="fill:#3BD8AB;" d="M272,72v40c0,17.672-14.328,32-32,32H32c-17.672,0-32-14.328-32-32V72c0-17.672,14.328-32,32-32h208
		C257.672,40,272,54.328,272,72z"/>
	<path style="fill:#3BD8AB;" d="M288,400h-96c-17.672,0-32-14.328-32-32v-80c0-17.672,14.328-32,32-32h96c17.672,0,32,14.328,32,32
		v80C320,385.672,305.672,400,288,400z"/>
</g>
<path style="fill:#89E8CD;" d="M320,0h-8v56c0,17.672,14.328,32,32,32h56v-8L320,0z"/>
<g>
	<polygon style="fill:#FFFFFF;" points="285.784,368.064 267.576,368.064 264,362.184 240,320.184 221.784,352.064 240,352.12 
		244.568,352.128 254.128,368.064 194.216,368.064 240,287.936 	"/>
	<rect x="24" y="104" style="fill:#FFFFFF;" width="16" height="16"/>
	<path style="fill:#FFFFFF;" d="M82.248,87.2l-7.96-3.12c-4.104-1.576-6.072-2.416-6.072-4.096c0-2.464,3.016-2.824,4.824-2.824
		c3.56,0,6.552,1.088,10.336,3.76l0.648,0.456l8.128-10.2l-0.536-0.528c-4.776-4.68-11.712-7.488-18.576-7.488
		c-11.968,0-20.984,7.592-20.984,17.664c0,7.168,4.168,12.936,11.416,15.832l6.76,2.832l1.176,0.472
		c3.896,1.536,5.624,2.296,5.624,4c0,0.824,0,2.984-5.32,2.984c-3.6,0-8.248-1.936-12.128-5.056l-0.648-0.512l-9.2,11.08l0.6,0.536
		c5.536,4.984,13.4,7.968,21.04,7.968c14.432,0,21.984-9.144,21.984-18.168C93.352,95.36,89.616,90.12,82.248,87.2z"/>
	<polygon style="fill:#FFFFFF;" points="116.304,98.32 133.952,98.32 133.952,84.64 116.304,84.64 116.304,77.84 136.952,77.84 
		136.952,64.168 100.304,64.168 100.304,119.968 137.784,119.968 137.784,106.288 116.304,106.288 	"/>
	<path style="fill:#FFFFFF;" d="M175.432,87.2l-7.96-3.12c-4.104-1.576-6.072-2.416-6.072-4.096c0-2.464,3.016-2.824,4.824-2.824
		c3.56,0,6.552,1.088,10.336,3.76l0.648,0.456l8.128-10.2l-0.536-0.528c-4.776-4.68-11.712-7.488-18.576-7.488
		c-11.968,0-20.992,7.592-20.992,17.664c0,7.168,4.168,12.936,11.424,15.832l6.76,2.832l1.176,0.472
		c3.896,1.536,5.624,2.296,5.624,4c0,0.824,0,2.984-5.32,2.984c-3.6,0-8.248-1.936-12.128-5.056l-0.648-0.512l-9.2,11.08l0.6,0.536
		c5.536,4.984,13.4,7.968,21.04,7.968c14.432,0,21.984-9.144,21.984-18.168C186.536,95.36,182.8,90.12,175.432,87.2z"/>
	<path style="fill:#FFFFFF;" d="M237,64.168h-17.288l-3.352,9.352c-0.832,2.08-1.792,4.536-2.784,7.4
		c-0.32-0.768-0.624-1.504-0.92-2.208c-0.8-1.936-1.52-3.68-2.232-5.192l-3.88-9.344h-17.936l14.264,27.152l-15.096,28.656h17.272
		l4.208-10.176c0.96-2.328,1.944-4.728,2.92-7.4c1.128,2.8,2.112,5.112,3.192,7.424l4.544,10.16h17.936L222.736,92L237,64.168z"/>
</g>
<g>
</g>
<g>
</g>
<g>
</g>
<g>
</g>
<g>
</g>
<g>
</g>
<g>
</g>
<g>
</g>
<g>
</g>
<g>
</g>
<g>
</g>
<g>
</g>
<g>
</g>
<g>
</g>
<g>
</g>
</svg>
